# xmcd
# Track frame offsets:
# 150
# 12767
# 36667
# 52028
# 61813
# 73618
# 86570
# 106767
# 117168
# 133067
# 145987
# 162534
# 184793
# 194712
# 219030
#
# Disc length: 3376 seconds
# Revision: 0
# Processed by: cddbd v1.5.1PL0 Copyright (c) Steve Scherf et al.
# Submitted via: VisiTrax 2.9.10.228 - For more info visit www.synapsa.com
#
DISCID=dc0d2e0f
DTITLE=George Hamilton IV - The Valley Of Silence
DYEAR=2000
DGENRE=
TTITLE0=When my Lief`s Work is Ended
TTITLE1=Her Story,His Song the Silver Cord
TTITLE2=Blessed Assurance
TTITLE3=Behold me Standing at the Door He´s Calling Today
TTITLE4=Tell Me The Story
TTITLE5=All Things Well All The Way Saviour Leads Me
TTITLE6=To God Be The Glory
TTITLE7=The Mothers`s Watch Safe In The Arms
TTITLE8=I Am Thine
TTITLE9=In The Cross Of Christ I Glory The Cross In My Pocket
TTITLE10=Rescue The Perishing
TTITLE11=The Vally Of Silence Close to Thee
TTITLE12=Can We Say We Are Ready
TTITLE13=The Blind Girl Wispers Of Love
TTITLE14=Precious Memories
EXTD=
EXTT0=
EXTT1=
EXTT2=
EXTT3=
EXTT4=
EXTT5=
EXTT6=
EXTT7=
EXTT8=
EXTT9=
EXTT10=
EXTT11=
EXTT12=
EXTT13=
EXTT14=
PLAYORDER=
